
<svg xmlns="http://www.w3.org/2000/svg" version="1.1" xmlns:xlink="http://www.w3.org/1999/xlink" preserveAspectRatio="none" x="0px" y="0px" width="500px" height="500px" viewBox="0 0 500 500">
<defs>
<g id="Layer0_0_FILL">
<path fill="#FFFFFF" stroke="none" d="
M 373.45 343.95
Q 386.1 343.95 398.5 343.95 399.3 344.2 399.8 344.2 400.6 344.45 401.1 344.45 401.6 344.75 402.15 345 402.65 345.25 402.9 345.5 403.15 345.75 403.7 346 403.95 346.3 404.2 346.55 404.45 346.8 404.7 347.05 404.7 347.3 404.95 347.85 404.95 348.1 405.2 348.35 405.2 348.6 405.5 348.85 405.5 349.1 405.75 349.4 405.75 349.65 405.75 349.9 406 350.15 406 350.4 406 350.65 406 350.9 406 351.2 406 351.45 406 351.7 406 351.95 406 352.2 406 352.45 406 352.75 406 353 406 353.25 405.75 353.5 405.75 353.75 405.75 354 405.5 354.3 405.5 354.55 405.5 354.8 405.2 355.05 405.2 355.3 404.95 355.55 404.7 355.85 404.7 356.1 404.45 356.35 404.2 356.6 404.2 356.85 403.95 357.1 403.7 357.4 403.15 357.65 402.9 357.9 402.4 358.15 401.85 358.4 401.35 358.65 401.1 358.95 400.6 359.2 400.3 359.2 399.8 359.2 399.05 359.45 398.25 359.45 385.35 359.45 372.45 359.45
L 372.45 371.8
Q 385.35 371.8 398.25 371.8 399.05 371.8 399.8 372.05 400.3 372.05 400.85 372.3 401.35 372.55 401.85 372.8 402.4 373.1 402.9 373.35 403.15 373.6 403.4 373.85 403.7 374.1 403.95 374.35 404.2 374.65 404.45 374.9 404.7 375.15 404.7 375.4 404.95 375.65 404.95 375.9 405.2 376.2 405.2 376.45 405.5 376.7 405.5 376.95 405.5 377.2 405.75 377.45 405.75 377.75 405.75 378 405.75 378.25 405.75 378.5 405.75 378.75 405.75 379 405.75 379.3 405.75 379.55 405.75 380.05 405.75 380.3 405.75 380.55 405.75 380.85 405.75 381.1 405.75 381.35 405.5 381.6 405.5 381.85 405.5 382.1 405.2 382.4 405.2 382.65 405.2 382.9 404.95 383.15 404.7 383.4 404.7 383.65 404.45 383.95 404.2 384.2 404.2 384.45 403.95 384.7 403.7 384.95 403.4 385.2 402.9 385.5 402.65 385.75 402.4 386 401.85 386.25 401.35 386.5 400.85 386.75 400.3 386.75 400.05 387.05 399.8 387.05 399.05 387.05 398.25 387.3 385.35 387.3 372.45 387.3
L 372.45 399.95
Q 386.1 399.95 399.55 399.95 400.3 399.95 400.85 400.2 401.6 400.2 402.15 400.45 402.65 400.7 403.15 400.95 403.7 401.25 404.2 401.5 404.45 401.75 404.7 402 404.95 402.25 405.2 402.5 405.5 402.8 405.75 403.05 405.75 403.3 406 403.55 406 403.8 406.25 404.05 406.25 404.35 406.5 404.6 406.5 404.85 406.75 405.1 406.75 405.35 406.75 405.6 407.05 405.9 407.05 406.15 407.05 406.4 407.05 406.9 407.05 407.15 407.05 407.45 407.05 407.7 407.05 407.95 407.05 408.2 407.05 408.45 407.05 408.7 407.05 409 407.05 409.25 406.75 409.5 406.75 409.75 406.75 410 406.5 410.25 406.5 410.55 406.5 410.8 406.25 411.05 406.25 411.3 406 411.55 405.75 411.8 405.75 412.1 405.5 412.35 405.2 412.6 405.2 412.85 404.95 413.1 404.7 413.3 404.2 413.6 403.95 413.85 403.7 414.1 402.9 414.35 402.4 414.6 402.15 414.85 401.6 414.85 401.35 415.15 400.85 415.15 400.05 415.15 399.3 415.4 385.85 415.4 372.45 415.4
L 372.45 427.25
Q 384.55 427.25 396.7 427.25 397.5 427.5 398.25 427.5 398.75 427.8 399.3 427.8 399.8 428.05 400.3 428.55 400.85 428.8 401.35 429.05 401.6 429.35 401.85 429.6 402.15 429.85 402.4 430.1 402.65 430.35 402.9 430.6 402.9 430.9 403.15 431.15 403.15 431.4 403.4 431.65 403.7 431.9 403.7 432.15 403.95 432.45 403.95 432.7 403.95 432.95 404.2 433.2 404.2 433.45 404.2 433.7 404.2 434 404.2 434.25 404.2 434.5 404.2 434.75 404.2 435 404.2 435.25 404.2 435.55 404.2 435.8 404.2 436.05 404.2 436.3 404.2 436.55 404.2 436.8 403.95 437.1 403.95 437.35 403.95 437.6 403.7 437.85 403.7 438.1 403.7 438.35 403.4 438.65 403.15 438.9 402.9 439.15 402.9 439.4 402.65 439.65 402.4 439.9 402.4 440.2 402.15 440.45 401.85 440.7 401.35 440.95 401.1 441.2 400.85 441.45 400.3 441.75 399.8 442 399.3 442.25 398.75 442.5 398.5 442.5 398.25 442.5 397.2 442.75 396.45 442.75 384.55 442.75 372.45 442.75
L 372.45 443.3
Q 372.45 447.15 372.95 450.75 374.75 464.45 383.8 474.75 385.9181640625 477.20390625 388.2 479.2 398.1265625 487.9 411.1 487.9
L 411.35 487.9
Q 424.4048828125 487.9 434.15 479.2 436.428515625 477.20390625 438.5 474.75 450.1 461.85 450.1 443.3
L 450.1 354.3
Q 450.1 335.95 438.5 322.8 427.4 309.6 411.35 309.6
L 411.1 309.6
Q 395.15 309.6 383.8 322.8 376.05 331.55 373.7 342.9 373.7 343.45 373.45 343.95
M 418.35 81.3
Q 384.8 47.75 344.85 30.5 301.5 11.65 250.15 11.65 198.85 11.65 155.45 30.5 115.2 47.75 81.7 81.3 64.9333984375 98.11484375 52.2 116.6 12 174.91875 12 249.8 12 324.643359375 52.2 382.8 64.9333984375 401.207421875 81.7 417.95 126.9166015625 463.2314453125 184.15 479.2 215.3775390625 487.9 250.15 487.9 284.9794921875 487.9 316.3 479.2 337.5873046875 473.29296875 357.25 463.35 357.4251953125 463.2884765625 357.6 463.2 357.675 463.16328125 357.75 463.1
L 357.75 459.35
Q 357.6580078125 458.39140625 357.6 457.4 357.5 455.7626953125 357.5 454.1
L 357.5 348.1
Q 357.5 326.15 372.95 310.4 388.7 294.95 410.65 294.95
L 410.9 294.95
Q 432.8 294.95 448.3 310.4 464 326.15 464 348.1
L 464 355.85
Q 469.95 343.95 474.6 331.3 488.3 293.4 488.3 249.8 488.3 206.15 474.6 168.25 457.35 120.25 418.35 81.3
M 191.35 372.05
Q 191.35 345.75 209.9 326.9 228.75 308.3 255 308.3 281.35 308.3 299.95 326.9 318.75 345.75 318.75 372.05 318.75 398.4 299.95 416.95 281.35 435.8 255 435.8 228.75 435.8 209.9 416.95 191.35 398.4 191.35 372.05 Z"/>
</g>
</defs>

<g transform="matrix( 1, 0, 0, 1, 0,0) ">
<use xlink:href="#Layer0_0_FILL"/>
</g>
</svg>
